<?xml version="1.0" encoding="utf-8"?>
<!-- Generator: Adobe Illustrator 24.3.0, SVG Export Plug-In . SVG Version: 6.00 Build 0)  -->
<svg version="1.1" xmlns="http://www.w3.org/2000/svg" xmlns:xlink="http://www.w3.org/1999/xlink" x="0px" y="0px"
	 viewBox="0 0 2032.7 937.7" style="enable-background:new 0 0 2032.7 937.7;" xml:space="preserve">
<style type="text/css">
	.st0{display:none;}
	.st1{display:inline;fill:none;}
	.st2{display:inline;fill:#FFFFFF;}
	.st3{display:inline;}
	.st4{fill:#FFFFFF;}
	.st5{display:none;fill:#FFFFFF;}
</style>
<g id="menuIcon" class="st0">
	<rect y="-57.4" class="st1" width="2032.7" height="1088.4"/>
	<rect y="-57.4" class="st1" width="2032.7" height="1088.4"/>
	<path class="st2" d="M672.7,289.2c-7.2,0-13.4,3-18.6,8.9L518,489l136.1,186.5c5.2,5.7,11.4,8.6,18.6,8.6h198.1
		c0.6,0,1.1,0.3,1.5,0.7c0.5,0.5,0.7,1.1,0.7,1.8v42.7c0,0.7-0.2,1.3-0.7,1.8c-0.4,0.4-0.9,0.7-1.5,0.7H668
		c-21.5,0-41.7-5.9-57.2-23.5L482.8,534.6l-123,170.9c-15.5,17.6-34,26.4-55.5,26.3H94.8c-0.6,0-1.1-0.3-1.5-0.7
		c-0.5-0.5-0.7-1.1-0.7-1.8v-42.7c0-0.7,0.2-1.3,0.7-1.8c0.4-0.4,0.9-0.7,1.5-0.7h204.8c7.2,0,13.4-2.9,18.6-8.6l132-185.4
		L317.1,303c-5.2-5.9-10.1-13.8-17.1-13.8H94.8c-0.6,0-1.1-0.3-1.5-0.7c-0.4-0.4-0.7-0.9-0.7-1.5v-43c0.1-1.2,1-2.1,2.2-2.2h209.5
		c21.5,0,38.4,11.6,53.9,29.2l126.5,171.7l128-174.5c15.3-17.6,33.7-26.3,55.2-26.4h202.8c0.6,0,1.1,0.3,1.5,0.7
		c0.4,0.4,0.7,0.9,0.7,1.5v43c0,0.6-0.3,1.1-0.7,1.5c-0.4,0.4-0.9,0.7-1.5,0.7L672.7,289.2z"/>
	<g class="st3">
		<path class="st4" d="M833.8,385.4c2.9-3.2,6.4-5.8,10.2-7.8c3.4-1.8,7.2-2.8,11-2.8h18.9v134.6l91.8-124c2.9-3.1,6.2-5.7,10-7.6
			c3.4-1.9,7.2-2.9,11.2-3h18.9v189.4h-34V433.1l-98.3,131.2h-33.6V433.1L743,564.2h-42L833.8,385.4z"/>
		<path class="st4" d="M1111.4,456.1h198.8c0.4,0,0.9,0.2,1.2,0.5c0.3,0.3,0.5,0.8,0.5,1.2v28.4c0,0.9-0.6,1.6-1.5,1.7
			c-0.1,0-0.1,0-0.2,0h-198.8v29c0,4.2,1.6,8.2,4.6,11.2c2.9,3.1,7,4.8,11.3,4.7h209.3c0.4,0,0.9,0.1,1.2,0.5c0.3,0.3,0.5,0.6,0.5,1
			v28.4c0,0.4-0.2,0.9-0.5,1.2c-0.3,0.3-0.8,0.5-1.2,0.5h-209.3c-29.1,0.1-52.7-23.4-52.8-52.5c0-0.1,0-0.2,0-0.3v-79
			c-0.1-29.1,23.4-52.7,52.5-52.8c0.1,0,0.2,0,0.3,0h209.3c0.4,0,0.9,0.1,1.2,0.5c0.3,0.3,0.5,0.8,0.5,1.2v28.4c0,0.4-0.2,0.7-0.5,1
			c-0.3,0.3-0.8,0.5-1.2,0.5h-209.3c-4.2-0.1-8.3,1.6-11.3,4.7c-3,2.9-4.7,7-4.6,11.2V456.1z"/>
		<path class="st4" d="M1591.3,515.5V374.9h34v189.4h-32.5l-150.4-140.7v140.7h-34V374.9h32.1L1591.3,515.5z"/>
		<path class="st4" d="M1958.5,511.6c0,29.1-23.6,52.6-52.6,52.6c-0.1,0-0.1,0-0.2,0h-158.2c-29.1,0-52.7-23.5-52.8-52.6V381.3
			c0-0.4,0.1-0.9,0.5-1.2c0.3-0.3,0.8-0.5,1.2-0.5h33.8c0.4,0,0.7,0.2,1,0.5c0.3,0.3,0.5,0.8,0.5,1.2v135.5
			c-0.1,4.2,1.6,8.3,4.7,11.2c2.9,3,7,4.7,11.2,4.6h158.2c8.7,0.1,15.8-6.9,15.9-15.7c0-0.1,0-0.1,0-0.2V381.3
			c0-0.4,0.1-0.9,0.5-1.2c0.3-0.3,0.8-0.5,1.2-0.5h33.6c0.4,0,0.9,0.2,1.2,0.5c0.3,0.3,0.5,0.8,0.5,1.2L1958.5,511.6z"/>
	</g>
</g>
<g id="Layer_2">
	<g id="squeexe">
		<g id="logoSVG">
			<g id="letters">
				<path id="bigX_1_" class="st4" d="M1686.9,330.7c-4.2,0-8.2,1.9-10.9,5.2L1596.1,448l79.9,109.5c2.7,3.2,6.7,5.1,10.9,5.1h116.4
					c0.3,0,0.6,0.1,0.8,0.4c0.3,0.3,0.4,0.6,0.4,1.1v25.1c0,0.4-0.1,0.7-0.4,1.1c-0.2,0.2-0.5,0.4-0.8,0.4h-119.2
					c-12.6,0-24.5-3.5-33.6-13.9l-75.2-102l-72.2,100.3c-9.1,10.4-20,15.5-32.6,15.5h-123.1c-0.3,0-0.6-0.1-0.8-0.4
					c-0.3-0.3-0.4-0.6-0.4-1.1v-25.1c0-0.4,0.1-0.7,0.4-1.1c0.2-0.2,0.5-0.4,0.8-0.4h120.3c4.2,0,8.2-1.8,10.9-5.1l77.5-108.9
					l-78.2-110c-3.1-3.5-5.9-8.1-10-8.1h-120.5c-0.3,0-0.6-0.1-0.8-0.4c-0.2-0.2-0.4-0.5-0.4-1V304c0-0.3,0.1-0.6,0.4-1
					c0.2-0.2,0.5-0.4,0.8-0.4h123.1c12.6,0,22.5,6.9,31.7,17.1l74.3,100.9l75.2-102.6c9.1-10.2,19.9-15.3,32.5-15.3h119.2
					c0.7,0,1.3,0.6,1.3,1.3v25.3c0,0.3-0.1,0.6-0.4,0.8c-0.2,0.2-0.5,0.4-0.8,0.4L1686.9,330.7z"/>
				<path id="midX" class="st5" d="M1686.9,330.7c-4.2,0-8.2,1.9-10.9,5.2L1596.1,448l79.9,109.5c2.7,3.2,6.7,5.1,10.9,5.1h116.4
					c0.3,0,0.6,0.1,0.8,0.4c0.3,0.3,0.4,0.6,0.4,1.1v25.1c0,0.4-0.1,0.7-0.4,1.1c-0.2,0.2-0.5,0.4-0.8,0.4h-119.2
					c-12.6,0-24.5-3.5-33.6-13.9l-75.2-102l-72.2,100.3c-9.1,10.4-20,15.5-32.6,15.5h-123.1c-0.3,0-0.6-0.1-0.8-0.4
					c-0.3-0.3-0.4-0.6-0.4-1.1v-25.1c0-0.4,0.1-0.7,0.4-1.1c0.2-0.2,0.5-0.4,0.8-0.4h120.3c4.2,0,8.2-1.8,10.9-5.1l77.5-108.9
					l-78.2-110c-3.1-3.5-5.9-8.1-10-8.1h-120.5c-0.3,0-0.6-0.1-0.8-0.4c-0.2-0.2-0.4-0.5-0.4-1V304c0-0.3,0.1-0.6,0.4-1
					c0.2-0.2,0.5-0.4,0.8-0.4h123.1c12.6,0,22.5,6.9,31.7,17.1l74.3,100.9l75.2-102.6c9.1-10.2,19.9-15.3,32.5-15.3h119.2
					c0.7,0,1.3,0.6,1.3,1.3v25.3c0,0.3-0.1,0.6-0.4,0.8c-0.2,0.2-0.5,0.4-0.8,0.4L1686.9,330.7z"/>
				<path id="_x32_" class="st4" d="M502.1,524.7H397.2c-10.2,0-19-2.6-26.6-7.8c-7.6-5.2-14.1-11.7-19-19.3
					c-5.1-7.6-8.9-16-11.4-24.7c-2.3-7.7-3.7-15.6-3.8-23.7v-7.9c0.2-8,1.5-16,3.8-23.7c2.5-8.8,6.3-17.1,11.4-24.7
					c5-7.6,11.5-14.3,19-19.3c7.6-5.2,16.5-7.8,26.6-7.8H523c10.2,0,19,2.6,26.6,7.8c7.5,5.2,14.1,11.7,19,19.3
					c5.1,7.6,8.9,16,11.4,24.7c2.3,7.7,3.7,15.6,3.8,23.7v7.9c-0.1,6.9-1.1,13.7-2.9,20.3c-1.9,7.5-4.9,14.8-8.6,21.6
					c-3.8,7-8.6,13.3-14.2,18.9c-5.6,5.6-12.4,9.7-19.9,12.3l28.9,27.6h-39.1L502.1,524.7z M364.8,445.9c0,6.6,1,13,2.9,19.2
					c1.8,6.2,4.5,12.1,8.1,17.4c3.3,5,7.6,9.3,12.7,12.6c5.1,3.2,11,4.9,17,4.8h70.5l-45.7-43.6h39.1l45.7,43.6
					c5.9,0.1,11.7-1.6,16.7-4.8c5.1-3.3,9.4-7.5,12.7-12.6c3.6-5.4,6.3-11.3,8.1-17.4c1.9-6.2,2.9-12.7,2.9-19.2v-1.6
					c0-6.6-1-13-2.9-19.2c-1.8-6.2-4.5-12.1-8.1-17.4c-3.3-5-7.6-9.3-12.7-12.6c-5.1-3.2-11-4.9-17-4.8H405.5
					c-6-0.1-11.9,1.6-17,4.8c-5.1,3.3-9.4,7.5-12.7,12.6c-3.6,5.4-6.3,11.3-8.1,17.4c-1.9,6.2-2.9,12.7-2.9,19.2L364.8,445.9z"/>
				<path id="_x31_" class="st4" d="M98.7,418c-0.1,3.7,1.4,7.2,4,9.8c2.5,2.6,6,4.1,9.7,4h138.4c25.4,0,46,20.6,46,46v0.1v2.2
					c0,25.4-20.6,46.1-46,46.1H76.9c-0.3,0-0.6-0.1-0.8-0.4c-0.3-0.3-0.4-0.6-0.4-1.1v-24.8c0-0.4,0.1-0.7,0.4-1.1
					c0.2-0.2,0.5-0.4,0.8-0.4h173.8c7.6,0,13.7-6.1,13.7-13.7v-11.6c0-3.7-1.4-7.2-4-9.7c-2.5-2.6-6-4.1-9.7-4.1H112.4
					c-25.4,0-46-20.6-46-46v-2.4c0-25.4,20.6-46,46-46h173.8c0.3,0,0.6,0.1,0.8,0.4c0.2,0.2,0.4,0.5,0.4,0.8v25
					c0,0.3-0.1,0.6-0.4,0.8c-0.2,0.2-0.5,0.4-0.8,0.4H112.4c-3.7,0-7.2,1.5-9.6,4.1c-2.6,2.5-4.1,6.1-4,9.8L98.7,418z"/>
				<path id="_x33_" class="st4" d="M854.4,480.4c0,25.4-20.6,46-46,46h-0.1H670c-25.4,0-46-20.5-46.1-46V366.5
					c0-0.7,0.5-1.4,1.3-1.5c0.1,0,0.1,0,0.2,0h29.5c0.3,0,0.6,0.1,0.8,0.4c0.3,0.3,0.4,0.6,0.4,1.1v118.4c-0.1,3.7,1.4,7.3,4.1,9.8
					c2.5,2.6,6.1,4.1,9.7,4h138.2c7.6,0.1,13.9-6,13.9-13.6c0-0.1,0-0.2,0-0.2V366.5c0-0.7,0.5-1.4,1.3-1.5h0.1h29.4
					c0.7,0,1.4,0.5,1.5,1.3c0,0.1,0,0.1,0,0.2v113.9H854.4z"/>
				<path id="_x34_" class="st4" d="M934.9,431.8h173.7c0.7,0,1.4,0.5,1.5,1.3v0.1v24.8c0,0.7-0.5,1.4-1.3,1.5h-0.1H934.9v25.4
					c0,3.7,1.4,7.2,4,9.7c2.5,2.6,6.1,4.2,9.8,4.1h182.9c0.4,0,0.7,0.1,1.1,0.4c0.2,0.2,0.4,0.5,0.4,0.8v24.8c0,0.4-0.1,0.7-0.4,1.1
					c-0.3,0.3-0.6,0.4-1.1,0.4H948.8c-25.4,0.1-46.1-20.4-46.1-45.9c0-0.1,0-0.2,0-0.3v-69c-0.1-25.4,20.4-46.1,45.9-46.1
					c0.1,0,0.2,0,0.3,0h182.9c0.4,0,0.7,0.1,1.1,0.4c0.3,0.3,0.4,0.6,0.4,1.1v24.8c0,0.3-0.1,0.6-0.4,0.8c-0.3,0.3-0.6,0.4-1.1,0.4
					H948.9c-3.7-0.1-7.3,1.4-9.8,4.1c-2.6,2.5-4,6.1-4,9.7v25.4H934.9z"/>
				<path id="_x35_" class="st4" d="M1213.8,431.8h173.7c0.4,0,0.7,0.1,1.1,0.4c0.3,0.3,0.4,0.6,0.4,1.1v24.8c0,0.4-0.1,0.7-0.4,1.1
					c-0.3,0.3-0.6,0.4-1.1,0.4h-173.7V485c0,3.7,1.4,7.2,4,9.7c2.5,2.6,6.1,4.2,9.8,4.1h182.9c0.4,0,0.7,0.1,1.1,0.4
					c0.2,0.2,0.4,0.5,0.4,0.8V525c0,0.4-0.1,0.7-0.4,1.1c-0.3,0.3-0.6,0.4-1.1,0.4h-182.9c-25.4,0.1-46.1-20.4-46.1-45.9
					c0-0.1,0-0.2,0-0.3v-69.1c-0.1-25.4,20.4-46.1,45.9-46.1c0.1,0,0.2,0,0.3,0h182.9c0.7,0,1.4,0.5,1.5,1.3c0,0.1,0,0.1,0,0.2v24.8
					c0,0.3-0.1,0.6-0.4,0.8c-0.3,0.3-0.6,0.4-1.1,0.4h-182.9c-3.7-0.1-7.3,1.4-9.8,4.1c-2.6,2.5-4.1,6.1-4,9.7L1213.8,431.8z"/>
				<path id="_x37_" class="st4" d="M1771.4,431.8h173.7c0.4,0,0.7,0.1,1.1,0.4s0.4,0.6,0.4,1.1v24.8c0,0.4-0.1,0.7-0.4,1.1
					s-0.6,0.4-1.1,0.4h-173.7V485c0,3.7,1.4,7.2,4,9.7c2.5,2.6,6.1,4.2,9.8,4.1h182.9c0.4,0,0.7,0.1,1.1,0.4
					c0.2,0.2,0.4,0.5,0.4,0.8V525c0,0.4-0.1,0.7-0.4,1.1c-0.3,0.3-0.6,0.4-1.1,0.4h-182.9c-25.4,0.1-46.1-20.4-46.1-45.9
					c0-0.1,0-0.2,0-0.3v-69.1c-0.1-25.4,20.4-46.1,45.9-46.1c0.1,0,0.2,0,0.3,0h182.9c0.7,0,1.4,0.5,1.5,1.3c0,0.1,0,0.1,0,0.2v24.8
					c0,0.3-0.1,0.6-0.4,0.8c-0.3,0.3-0.6,0.4-1.1,0.4h-182.9c-3.7-0.1-7.3,1.4-9.8,4.1c-2.6,2.5-4.1,6.1-4,9.7v25.4H1771.4z"/>
			</g>
		</g>
	</g>
</g>
</svg>
