<?xml version="1.0" encoding="UTF-8" standalone="no"?>
<svg
   id="Layer_1"
   viewBox="0 0 157.69 99.019994"
   version="1.1"
   sodipodi:docname="MenuClosed.svg"
   width="157.69"
   height="99.019997"
   xmlns:inkscape="http://www.inkscape.org/namespaces/inkscape"
   xmlns:sodipodi="http://sodipodi.sourceforge.net/DTD/sodipodi-0.dtd"
   xmlns="http://www.w3.org/2000/svg"
   xmlns:svg="http://www.w3.org/2000/svg">
  <sodipodi:namedview
     id="namedview11"
     pagecolor="#ffffff"
     bordercolor="#000000"
     borderopacity="0.25"
     inkscape:showpageshadow="2"
     inkscape:pageopacity="0.0"
     inkscape:pagecheckerboard="0"
     inkscape:deskcolor="#d1d1d1"
     inkscape:zoom="2.2914398"
     inkscape:cx="190.27338"
     inkscape:cy="179.145"
     inkscape:window-width="1920"
     inkscape:window-height="1017"
     inkscape:window-x="-8"
     inkscape:window-y="-8"
     inkscape:window-maximized="1"
     inkscape:current-layer="Layer_1" />
  <defs
     id="defs11">
    <style
       id="style1">.cls-1{fill:#fffffd;}.cls-2{fill:url(#radial-gradient);stroke:#fcfcfc;stroke-miterlimit:10;stroke-width:2.09px;}</style>
  </defs>
  <path
     class="cls-1"
     d="m 117.21,9.6 c -1.46,0 -2.71,0.6 -3.76,1.79 l -27.49,38.58 27.49,37.68 c 1.05,1.16 2.3,1.74 3.76,1.74 h 40.03 c 0.11,0 0.21,0.05 0.31,0.14 0.09,0.09 0.14,0.22 0.14,0.36 v 8.63 c 0,0.15 -0.05,0.27 -0.14,0.36 -0.09,0.09 -0.2,0.14 -0.31,0.14 h -40.99 c -4.33,0 -8.43,-1.2 -11.57,-4.75 L 78.84,59.18 53.99,93.7 c -3.14,3.55 -6.88,5.32 -11.21,5.32 H 0.45 C 0.34,99.02 0.23,98.97 0.14,98.88 0.05,98.79 0,98.67 0,98.52 v -8.63 c 0,-0.15 0.05,-0.27 0.14,-0.36 0.09,-0.09 0.2,-0.14 0.31,-0.14 h 41.38 c 1.46,0 2.71,-0.58 3.75,-1.74 L 72.25,50.19 45.35,12.38 C 44.3,11.18 43.31,9.59 41.89,9.59 H 0.45 C 0.34,9.59 0.23,9.54 0.14,9.45 0.05,9.36 0,9.25 0,9.14 V 0.45 C 0,0.34 0.05,0.24 0.14,0.14 0.23,0.05 0.34,0 0.45,0 h 42.33 c 4.33,0 7.76,2.35 10.89,5.9 L 79.23,40.59 105.09,5.33 c 3.1,-3.55 6.82,-5.32 11.15,-5.32 h 40.99 c 0.11,0 0.21,0.05 0.31,0.14 0.09,0.09 0.14,0.2 0.14,0.31 v 8.69 c 0,0.11 -0.05,0.22 -0.14,0.31 -0.09,0.09 -0.2,0.14 -0.31,0.14 H 117.2 Z"
     id="path11"
     style="opacity:1;fill:#ffffff;fill-opacity:1" />
</svg>
