<?xml version="1.0" encoding="UTF-8" standalone="no"?>
<!-- Generator: Adobe Illustrator 24.3.0, SVG Export Plug-In . SVG Version: 6.00 Build 0)  -->

<svg
   version="1.1"
   x="0px"
   y="0px"
   viewBox="0 0 2032.7 937.7"
   style="enable-background:new 0 0 2032.7 937.7;"
   xml:space="preserve"
   id="svg6"
   xmlns="http://www.w3.org/2000/svg"
   xmlns:svg="http://www.w3.org/2000/svg"><defs
   id="defs6" />&#10;<style
   type="text/css"
   id="style1">&#10;	.st0{display:none;}&#10;	.st1{display:inline;fill:none;}&#10;	.st2{display:inline;fill:#FFFFFF;}&#10;	.st3{display:inline;}&#10;	.st4{fill:#FFFFFF;}&#10;	.st5{display:none;fill:#FFFFFF;}&#10;</style>&#10;<g
   id="menuIcon"
   class="st0">&#10;	<rect
   y="-57.400002"
   class="st1"
   width="2032.7"
   height="1088.4"
   id="rect1"
   x="0" />&#10;	<rect
   y="-57.400002"
   class="st1"
   width="2032.7"
   height="1088.4"
   id="rect2"
   x="0" />&#10;	<path
   class="st2"
   d="m 672.7,289.2 c -7.2,0 -13.4,3 -18.6,8.9 L 518,489 654.1,675.5 c 5.2,5.7 11.4,8.6 18.6,8.6 h 198.1 c 0.6,0 1.1,0.3 1.5,0.7 0.5,0.5 0.7,1.1 0.7,1.8 v 42.7 c 0,0.7 -0.2,1.3 -0.7,1.8 -0.4,0.4 -0.9,0.7 -1.5,0.7 H 668 c -21.5,0 -41.7,-5.9 -57.2,-23.5 l -128,-173.7 -123,170.9 c -15.5,17.6 -34,26.4 -55.5,26.3 H 94.8 c -0.6,0 -1.1,-0.3 -1.5,-0.7 -0.5,-0.5 -0.7,-1.1 -0.7,-1.8 v -42.7 c 0,-0.7 0.2,-1.3 0.7,-1.8 0.4,-0.4 0.9,-0.7 1.5,-0.7 h 204.8 c 7.2,0 13.4,-2.9 18.6,-8.6 L 450.2,490.1 317.1,303 C 311.9,297.1 307,289.2 300,289.2 H 94.8 c -0.6,0 -1.1,-0.3 -1.5,-0.7 -0.4,-0.4 -0.7,-0.9 -0.7,-1.5 v -43 c 0.1,-1.2 1,-2.1 2.2,-2.2 h 209.5 c 21.5,0 38.4,11.6 53.9,29.2 l 126.5,171.7 128,-174.5 c 15.3,-17.6 33.7,-26.3 55.2,-26.4 h 202.8 c 0.6,0 1.1,0.3 1.5,0.7 0.4,0.4 0.7,0.9 0.7,1.5 v 43 c 0,0.6 -0.3,1.1 -0.7,1.5 -0.4,0.4 -0.9,0.7 -1.5,0.7 z"
   id="path2" />&#10;	<g
   class="st3"
   id="g6">&#10;		<path
   class="st4"
   d="m 833.8,385.4 c 2.9,-3.2 6.4,-5.8 10.2,-7.8 3.4,-1.8 7.2,-2.8 11,-2.8 h 18.9 v 134.6 l 91.8,-124 c 2.9,-3.1 6.2,-5.7 10,-7.6 3.4,-1.9 7.2,-2.9 11.2,-3 h 18.9 v 189.4 h -34 V 433.1 L 873.5,564.3 H 839.9 V 433.1 L 743,564.2 h -42 z"
   id="path3" />&#10;		<path
   class="st4"
   d="m 1111.4,456.1 h 198.8 c 0.4,0 0.9,0.2 1.2,0.5 0.3,0.3 0.5,0.8 0.5,1.2 v 28.4 c 0,0.9 -0.6,1.6 -1.5,1.7 -0.1,0 -0.1,0 -0.2,0 h -198.8 v 29 c 0,4.2 1.6,8.2 4.6,11.2 2.9,3.1 7,4.8 11.3,4.7 h 209.3 c 0.4,0 0.9,0.1 1.2,0.5 0.3,0.3 0.5,0.6 0.5,1 v 28.4 c 0,0.4 -0.2,0.9 -0.5,1.2 -0.3,0.3 -0.8,0.5 -1.2,0.5 h -209.3 c -29.1,0.1 -52.7,-23.4 -52.8,-52.5 0,-0.1 0,-0.2 0,-0.3 v -79 c -0.1,-29.1 23.4,-52.7 52.5,-52.8 0.1,0 0.2,0 0.3,0 h 209.3 c 0.4,0 0.9,0.1 1.2,0.5 0.3,0.3 0.5,0.8 0.5,1.2 v 28.4 c 0,0.4 -0.2,0.7 -0.5,1 -0.3,0.3 -0.8,0.5 -1.2,0.5 h -209.3 c -4.2,-0.1 -8.3,1.6 -11.3,4.7 -3,2.9 -4.7,7 -4.6,11.2 z"
   id="path4" />&#10;		<path
   class="st4"
   d="M 1591.3,515.5 V 374.9 h 34 v 189.4 h -32.5 L 1442.4,423.6 v 140.7 h -34 V 374.9 h 32.1 z"
   id="path5"
   style="display:inline;opacity:1" />&#10;		<path
   class="st4"
   d="m 1958.5,511.6 c 0,29.1 -23.6,52.6 -52.6,52.6 -0.1,0 -0.1,0 -0.2,0 h -158.2 c -29.1,0 -52.7,-23.5 -52.8,-52.6 V 381.3 c 0,-0.4 0.1,-0.9 0.5,-1.2 0.3,-0.3 0.8,-0.5 1.2,-0.5 h 33.8 c 0.4,0 0.7,0.2 1,0.5 0.3,0.3 0.5,0.8 0.5,1.2 v 135.5 c -0.1,4.2 1.6,8.3 4.7,11.2 2.9,3 7,4.7 11.2,4.6 h 158.2 c 8.7,0.1 15.8,-6.9 15.9,-15.7 0,-0.1 0,-0.1 0,-0.2 V 381.3 c 0,-0.4 0.1,-0.9 0.5,-1.2 0.3,-0.3 0.8,-0.5 1.2,-0.5 h 33.6 c 0.4,0 0.9,0.2 1.2,0.5 0.3,0.3 0.5,0.8 0.5,1.2 z"
   id="path6" />&#10;	</g>&#10;</g>&#10;<g
   id="Layer_2">&#10;	<g
   id="squeexe">&#10;		<g
   id="logoSVG">&#10;			<g
   id="letters">&#10;				<path
   id="bigX_1_"
   class="st4"
   d="M1686.9,330.7c-4.2,0-8.2,1.9-10.9,5.2L1596.1,448l79.9,109.5c2.7,3.2,6.7,5.1,10.9,5.1h116.4      c0.3,0,0.6,0.1,0.8,0.4c0.3,0.3,0.4,0.6,0.4,1.1v25.1c0,0.4-0.1,0.7-0.4,1.1c-0.2,0.2-0.5,0.4-0.8,0.4h-119.2      c-12.6,0-24.5-3.5-33.6-13.9l-75.2-102l-72.2,100.3c-9.1,10.4-20,15.5-32.6,15.5h-123.1c-0.3,0-0.6-0.1-0.8-0.4      c-0.3-0.3-0.4-0.6-0.4-1.1v-25.1c0-0.4,0.1-0.7,0.4-1.1c0.2-0.2,0.5-0.4,0.8-0.4h120.3c4.2,0,8.2-1.8,10.9-5.1l77.5-108.9      l-78.2-110c-3.1-3.5-5.9-8.1-10-8.1h-120.5c-0.3,0-0.6-0.1-0.8-0.4c-0.2-0.2-0.4-0.5-0.4-1V304c0-0.3,0.1-0.6,0.4-1      c0.2-0.2,0.5-0.4,0.8-0.4h123.1c12.6,0,22.5,6.9,31.7,17.1l74.3,100.9l75.2-102.6c9.1-10.2,19.9-15.3,32.5-15.3h119.2      c0.7,0,1.3,0.6,1.3,1.3v25.3c0,0.3-0.1,0.6-0.4,0.8c-0.2,0.2-0.5,0.4-0.8,0.4L1686.9,330.7z"
   style="fill:#c43402;fill-opacity:1" />&#10;				<path
   id="midX"
   class="st5"
   d="M1686.9,330.7c-4.2,0-8.2,1.9-10.9,5.2L1596.1,448l79.9,109.5c2.7,3.2,6.7,5.1,10.9,5.1h116.4      c0.3,0,0.6,0.1,0.8,0.4c0.3,0.3,0.4,0.6,0.4,1.1v25.1c0,0.4-0.1,0.7-0.4,1.1c-0.2,0.2-0.5,0.4-0.8,0.4h-119.2      c-12.6,0-24.5-3.5-33.6-13.9l-75.2-102l-72.2,100.3c-9.1,10.4-20,15.5-32.6,15.5h-123.1c-0.3,0-0.6-0.1-0.8-0.4      c-0.3-0.3-0.4-0.6-0.4-1.1v-25.1c0-0.4,0.1-0.7,0.4-1.1c0.2-0.2,0.5-0.4,0.8-0.4h120.3c4.2,0,8.2-1.8,10.9-5.1l77.5-108.9      l-78.2-110c-3.1-3.5-5.9-8.1-10-8.1h-120.5c-0.3,0-0.6-0.1-0.8-0.4c-0.2-0.2-0.4-0.5-0.4-1V304c0-0.3,0.1-0.6,0.4-1      c0.2-0.2,0.5-0.4,0.8-0.4h123.1c12.6,0,22.5,6.9,31.7,17.1l74.3,100.9l75.2-102.6c9.1-10.2,19.9-15.3,32.5-15.3h119.2      c0.7,0,1.3,0.6,1.3,1.3v25.3c0,0.3-0.1,0.6-0.4,0.8c-0.2,0.2-0.5,0.4-0.8,0.4L1686.9,330.7z" />&#10;				<path
   id="_x32_"
   class="st4"
   d="M502.1,524.7H397.2c-10.2,0-19-2.6-26.6-7.8c-7.6-5.2-14.1-11.7-19-19.3      c-5.1-7.6-8.9-16-11.4-24.7c-2.3-7.7-3.7-15.6-3.8-23.7v-7.9c0.2-8,1.5-16,3.8-23.7c2.5-8.8,6.3-17.1,11.4-24.7      c5-7.6,11.5-14.3,19-19.3c7.6-5.2,16.5-7.8,26.6-7.8H523c10.2,0,19,2.6,26.6,7.8c7.5,5.2,14.1,11.7,19,19.3      c5.1,7.6,8.9,16,11.4,24.7c2.3,7.7,3.7,15.6,3.8,23.7v7.9c-0.1,6.9-1.1,13.7-2.9,20.3c-1.9,7.5-4.9,14.8-8.6,21.6      c-3.8,7-8.6,13.3-14.2,18.9c-5.6,5.6-12.4,9.7-19.9,12.3l28.9,27.6h-39.1L502.1,524.7z M364.8,445.9c0,6.6,1,13,2.9,19.2      c1.8,6.2,4.5,12.1,8.1,17.4c3.3,5,7.6,9.3,12.7,12.6c5.1,3.2,11,4.9,17,4.8h70.5l-45.7-43.6h39.1l45.7,43.6      c5.9,0.1,11.7-1.6,16.7-4.8c5.1-3.3,9.4-7.5,12.7-12.6c3.6-5.4,6.3-11.3,8.1-17.4c1.9-6.2,2.9-12.7,2.9-19.2v-1.6      c0-6.6-1-13-2.9-19.2c-1.8-6.2-4.5-12.1-8.1-17.4c-3.3-5-7.6-9.3-12.7-12.6c-5.1-3.2-11-4.9-17-4.8H405.5      c-6-0.1-11.9,1.6-17,4.8c-5.1,3.3-9.4,7.5-12.7,12.6c-3.6,5.4-6.3,11.3-8.1,17.4c-1.9,6.2-2.9,12.7-2.9,19.2L364.8,445.9z" />&#10;				<path
   id="_x31_"
   class="st4"
   d="M98.7,418c-0.1,3.7,1.4,7.2,4,9.8c2.5,2.6,6,4.1,9.7,4h138.4c25.4,0,46,20.6,46,46v0.1v2.2      c0,25.4-20.6,46.1-46,46.1H76.9c-0.3,0-0.6-0.1-0.8-0.4c-0.3-0.3-0.4-0.6-0.4-1.1v-24.8c0-0.4,0.1-0.7,0.4-1.1      c0.2-0.2,0.5-0.4,0.8-0.4h173.8c7.6,0,13.7-6.1,13.7-13.7v-11.6c0-3.7-1.4-7.2-4-9.7c-2.5-2.6-6-4.1-9.7-4.1H112.4      c-25.4,0-46-20.6-46-46v-2.4c0-25.4,20.6-46,46-46h173.8c0.3,0,0.6,0.1,0.8,0.4c0.2,0.2,0.4,0.5,0.4,0.8v25      c0,0.3-0.1,0.6-0.4,0.8c-0.2,0.2-0.5,0.4-0.8,0.4H112.4c-3.7,0-7.2,1.5-9.6,4.1c-2.6,2.5-4.1,6.1-4,9.8L98.7,418z" />&#10;				<path
   id="_x33_"
   class="st4"
   d="M854.4,480.4c0,25.4-20.6,46-46,46h-0.1H670c-25.4,0-46-20.5-46.1-46V366.5      c0-0.7,0.5-1.4,1.3-1.5c0.1,0,0.1,0,0.2,0h29.5c0.3,0,0.6,0.1,0.8,0.4c0.3,0.3,0.4,0.6,0.4,1.1v118.4c-0.1,3.7,1.4,7.3,4.1,9.8      c2.5,2.6,6.1,4.1,9.7,4h138.2c7.6,0.1,13.9-6,13.9-13.6c0-0.1,0-0.2,0-0.2V366.5c0-0.7,0.5-1.4,1.3-1.5h0.1h29.4      c0.7,0,1.4,0.5,1.5,1.3c0,0.1,0,0.1,0,0.2v113.9H854.4z" />&#10;				<path
   id="_x34_"
   class="st4"
   d="M934.9,431.8h173.7c0.7,0,1.4,0.5,1.5,1.3v0.1v24.8c0,0.7-0.5,1.4-1.3,1.5h-0.1H934.9v25.4      c0,3.7,1.4,7.2,4,9.7c2.5,2.6,6.1,4.2,9.8,4.1h182.9c0.4,0,0.7,0.1,1.1,0.4c0.2,0.2,0.4,0.5,0.4,0.8v24.8c0,0.4-0.1,0.7-0.4,1.1      c-0.3,0.3-0.6,0.4-1.1,0.4H948.8c-25.4,0.1-46.1-20.4-46.1-45.9c0-0.1,0-0.2,0-0.3v-69c-0.1-25.4,20.4-46.1,45.9-46.1      c0.1,0,0.2,0,0.3,0h182.9c0.4,0,0.7,0.1,1.1,0.4c0.3,0.3,0.4,0.6,0.4,1.1v24.8c0,0.3-0.1,0.6-0.4,0.8c-0.3,0.3-0.6,0.4-1.1,0.4      H948.9c-3.7-0.1-7.3,1.4-9.8,4.1c-2.6,2.5-4,6.1-4,9.7v25.4H934.9z" />&#10;				<path
   id="_x35_"
   class="st4"
   d="M1213.8,431.8h173.7c0.4,0,0.7,0.1,1.1,0.4c0.3,0.3,0.4,0.6,0.4,1.1v24.8c0,0.4-0.1,0.7-0.4,1.1      c-0.3,0.3-0.6,0.4-1.1,0.4h-173.7V485c0,3.7,1.4,7.2,4,9.7c2.5,2.6,6.1,4.2,9.8,4.1h182.9c0.4,0,0.7,0.1,1.1,0.4      c0.2,0.2,0.4,0.5,0.4,0.8V525c0,0.4-0.1,0.7-0.4,1.1c-0.3,0.3-0.6,0.4-1.1,0.4h-182.9c-25.4,0.1-46.1-20.4-46.1-45.9      c0-0.1,0-0.2,0-0.3v-69.1c-0.1-25.4,20.4-46.1,45.9-46.1c0.1,0,0.2,0,0.3,0h182.9c0.7,0,1.4,0.5,1.5,1.3c0,0.1,0,0.1,0,0.2v24.8      c0,0.3-0.1,0.6-0.4,0.8c-0.3,0.3-0.6,0.4-1.1,0.4h-182.9c-3.7-0.1-7.3,1.4-9.8,4.1c-2.6,2.5-4.1,6.1-4,9.7L1213.8,431.8z" />&#10;				<path
   id="_x37_"
   class="st4"
   d="M1771.4,431.8h173.7c0.4,0,0.7,0.1,1.1,0.4s0.4,0.6,0.4,1.1v24.8c0,0.4-0.1,0.7-0.4,1.1      s-0.6,0.4-1.1,0.4h-173.7V485c0,3.7,1.4,7.2,4,9.7c2.5,2.6,6.1,4.2,9.8,4.1h182.9c0.4,0,0.7,0.1,1.1,0.4      c0.2,0.2,0.4,0.5,0.4,0.8V525c0,0.4-0.1,0.7-0.4,1.1c-0.3,0.3-0.6,0.4-1.1,0.4h-182.9c-25.4,0.1-46.1-20.4-46.1-45.9      c0-0.1,0-0.2,0-0.3v-69.1c-0.1-25.4,20.4-46.1,45.9-46.1c0.1,0,0.2,0,0.3,0h182.9c0.7,0,1.4,0.5,1.5,1.3c0,0.1,0,0.1,0,0.2v24.8      c0,0.3-0.1,0.6-0.4,0.8c-0.3,0.3-0.6,0.4-1.1,0.4h-182.9c-3.7-0.1-7.3,1.4-9.8,4.1c-2.6,2.5-4.1,6.1-4,9.7v25.4H1771.4z" />&#10;			</g>&#10;		</g>&#10;	</g>&#10;</g>&#10;</svg>
